<svg xmlns="http://www.w3.org/2000/svg" viewBox="0 0 180 180" role="img" aria-labelledby="title desc">
  <title id="title">UZVibes app icon placeholder</title>
  <desc id="desc">Dark neon UZVibes app icon placeholder.</desc>
  <defs>
    <linearGradient id="bg" x1="16" x2="164" y1="14" y2="166" gradientUnits="userSpaceOnUse">
      <stop stop-color="#0c1226" />
      <stop offset="1" stop-color="#070914" />
    </linearGradient>
    <linearGradient id="mark" x1="42" x2="138" y1="42" y2="138" gradientUnits="userSpaceOnUse">
      <stop stop-color="#38e7ff" />
      <stop offset="0.5" stop-color="#ff4fd8" />
      <stop offset="1" stop-color="#b8ff5e" />
    </linearGradient>
    <filter id="glow" x="-35%" y="-35%" width="170%" height="170%">
      <feGaussianBlur stdDeviation="8" result="blur" />
      <feMerge>
        <feMergeNode in="blur" />
        <feMergeNode in="SourceGraphic" />
      </feMerge>
    </filter>
  </defs>
  <rect width="180" height="180" rx="42" fill="url(#bg)" />
  <circle cx="48" cy="42" r="42" fill="#38e7ff" opacity="0.18" />
  <circle cx="136" cy="136" r="52" fill="#ff4fd8" opacity="0.18" />
  <path
    d="M43 54v40.5c0 21.4 13.4 34.2 36.6 34.2 23 0 36.4-12.8 36.4-34.2V54H95.8v39.5c0 10.6-5.3 15.9-16.2 15.9-11.2 0-16.4-5.3-16.4-15.9V54H43Z"
    fill="url(#mark)"
    filter="url(#glow)"
  />
  <path d="M121 54h22.5l-30 74.7H91L121 54Z" fill="#f7f8ff" opacity="0.94" />
</svg>
